<svg width="43" height="47" viewBox="0 0 43 47" fill="none" xmlns="http://www.w3.org/2000/svg">
<path d="M29.1689 16.335C29.1404 13.7047 28.2045 11.1629 26.5159 9.13016C24.8274 7.09738 22.4874 5.69546 19.8832 5.15638C16.0648 4.36096 12.6499 5.33164 9.67474 7.82239C9.60314 7.88193 9.53496 7.94822 9.46223 8.00776C9.10994 8.292 8.73946 8.383 8.41672 7.9954C8.1133 7.63701 8.27126 7.30559 8.58605 7.01798C9.98725 5.75294 11.5669 4.77889 13.3783 4.20367C16.6921 3.14872 19.9696 3.29815 23.1049 4.789C27.2051 6.73936 29.7666 9.98059 30.4473 14.4262C31.1883 19.2571 29.5382 23.3264 25.6937 26.4272C21.4389 29.8538 15.3432 30.2706 10.51 27.2507C8.46445 25.9722 6.91892 24.2296 5.79387 22.1186C5.54613 21.6513 5.645 21.2311 6.02115 21.048C6.41321 20.8547 6.76891 21.0176 7.05643 21.5603C8.04894 23.4476 9.54159 25.0327 11.3748 26.1463C18.1933 30.3695 27.5267 26.2811 28.9211 18.4482C29.0382 17.7483 29.0859 17.0394 29.1689 16.335Z" fill="url(#paint0_linear)"/>
<path d="M34.5157 17.6067C34.3248 22.6421 31.6179 27.4327 26.3199 30.6806C22.9277 32.7602 19.1775 33.4893 15.2011 32.9276C15.0506 32.9114 14.9021 32.8801 14.7579 32.8343C14.3875 32.7006 14.1636 32.3939 14.3034 32.0479C14.3671 31.9139 14.4593 31.7949 14.5736 31.6992C14.6879 31.6034 14.8217 31.5331 14.9659 31.4929C15.3409 31.421 15.7523 31.5367 16.1489 31.5637C21.6037 31.9333 26.121 30.0605 29.5666 25.8879C32.8827 21.8714 33.7873 17.2539 32.4406 12.2668C31.5315 8.90876 29.5814 6.20006 26.746 4.11151C24.8096 2.69368 22.6583 1.7949 20.3059 1.31743C20.0014 1.25563 19.7093 0.980382 19.49 0.741082C19.4241 0.668056 19.5661 0.291691 19.7105 0.179343C19.9029 0.0389698 20.1426 -0.0226032 20.3798 0.00745107C25.6437 0.987123 29.6814 3.71493 32.369 8.32118C33.8407 10.8411 34.5419 13.5667 34.5157 17.6067Z" fill="url(#paint1_linear)"/>
<path d="M17.5967 25.5261C13.0999 25.434 9.38495 22.4197 8.48036 18.0505C8.36103 17.4764 8.5349 17.1236 8.97811 17.0394C9.42131 16.9551 9.69973 17.1944 9.81792 17.7944C10.485 21.1805 13.4545 23.7802 16.9024 23.9926C20.4673 24.2173 23.6902 22.1018 24.8266 18.801C26.304 14.5161 23.6436 9.92553 19.1343 8.97843C19.0047 8.95147 18.8786 8.90766 18.749 8.88182C18.2752 8.78632 18.0547 8.49759 18.1479 8.03359C18.2411 7.56959 18.5911 7.47859 19.0184 7.53027C22.7288 7.97966 26.0289 11.313 26.5994 14.9711C27.3051 19.4953 24.4789 23.7421 20.2571 25.0093C19.3968 25.2644 18.4854 25.3576 17.5967 25.5261Z" fill="url(#paint2_linear)"/>
<path d="M17.5604 37.1597C13.5749 37.1182 9.86111 36.125 6.4689 34.0264C5.9166 33.6893 5.78705 33.3523 6.03024 32.986C6.27344 32.6198 6.68141 32.5658 7.18257 32.8613C10.6418 34.9004 14.3852 35.87 18.407 35.67C21.6053 35.5094 24.7162 34.583 27.472 32.9703C30.2278 31.3577 32.546 29.1072 34.2271 26.4126C34.2668 26.3485 34.3112 26.2879 34.3532 26.2261C34.6748 25.752 35.1101 25.616 35.4987 25.8665C35.8874 26.1171 35.9908 26.5653 35.6521 27.0451C34.9294 28.0719 34.2339 29.1291 33.4043 30.0684C30.6701 33.1624 27.2767 35.2644 23.2788 36.3913C21.4204 36.92 19.4941 37.1789 17.5604 37.1597Z" fill="url(#paint3_linear)"/>
<path d="M17.9865 44.7399L15.4375 44.5691C14.9648 44.5376 14.6227 44.3556 14.642 43.8242C14.6579 43.3591 15.0216 43.085 15.6091 43.1288C17.5941 43.264 19.588 43.1823 21.5549 42.885C23.9175 42.5445 26.2222 41.8872 28.4052 40.9313C31.3812 39.6512 34.1003 37.8528 36.4329 35.6217C36.751 35.315 37.0977 35.1072 37.5511 35.2903C38.0716 35.5004 38.1613 36.2037 37.6534 36.6463C36.576 37.5856 35.4942 38.5237 34.3362 39.3663C31.4883 41.4458 28.3131 42.8794 24.8948 43.7725C22.6382 44.3609 20.3196 44.6855 17.9865 44.7399Z" fill="url(#paint4_linear)"/>
<path d="M12.4465 16.3822C12.459 14.2936 13.6965 12.5028 15.6398 11.7658C17.5501 11.0412 19.8207 11.5254 21.1355 12.9376C22.6379 14.5498 22.9879 16.5855 22.0753 18.4426C21.9832 18.6266 21.8784 18.8042 21.7617 18.974C21.5208 19.3336 21.1935 19.4931 20.7946 19.2493C20.3957 19.0055 20.3116 18.6505 20.5673 18.2382C21.2208 17.1664 21.2844 16.0586 20.7832 14.9082C20.1366 13.4263 18.4445 12.5691 16.7558 12.8859C15.9695 13.0363 15.2565 13.4421 14.7302 14.039C14.204 14.6358 13.8945 15.3894 13.8511 16.18C13.7806 17.9146 14.8284 19.4246 16.4648 19.7908C17.0683 19.9256 17.732 19.8841 18.357 19.82C18.982 19.756 19.3525 19.8616 19.457 20.3087C19.5616 20.7559 19.2616 21.0761 18.69 21.2244C15.5921 22.0175 12.401 19.6032 12.4465 16.3822Z" fill="url(#paint5_linear)"/>
<path d="M38.6489 16.3855C38.6944 19.0674 38.1678 21.7287 37.1033 24.1959C36.9806 24.4824 36.6817 24.8071 36.3988 24.888C35.7749 25.0678 35.3987 24.4566 35.6328 23.7409C35.9737 22.6927 36.3806 21.6591 36.6306 20.5896C37.625 16.3406 37.142 12.232 35.301 8.27401C35.2146 8.08752 35.1089 7.90888 35.0305 7.71228C34.8396 7.24716 34.9714 6.84158 35.3623 6.65845C35.7533 6.47533 36.1828 6.64834 36.3919 7.09324C36.7579 7.87181 37.1386 8.64925 37.4352 9.45254C38.263 11.6713 38.6743 14.0208 38.6489 16.3855Z" fill="url(#paint6_linear)"/>
<path d="M17.0512 41.0368C14.6909 41.0818 11.8987 40.5672 9.18835 39.5988C8.95539 39.5157 8.67356 39.3561 8.58151 39.1561C8.48946 38.9562 8.53491 38.5764 8.6781 38.454C8.79098 38.3675 8.92075 38.3051 9.05922 38.2707C9.19769 38.2363 9.34188 38.2306 9.48269 38.254C10.4191 38.4708 11.3282 38.8079 12.268 39.0135C15.823 39.8138 19.5191 39.7703 23.0538 38.8865C23.7857 38.7034 24.505 38.4708 25.2278 38.2562C25.7562 38.1001 26.1721 38.2439 26.3256 38.645C26.5051 39.1168 26.2858 39.51 25.7039 39.7123C23.0754 40.6257 20.365 41.0616 17.0512 41.0368Z" fill="url(#paint7_linear)"/>
<path d="M28.0336 38.7304C27.8336 38.5338 27.4745 38.3405 27.4301 38.0934C27.3858 37.8462 27.5654 37.4193 27.7858 37.262C28.3541 36.8632 29.0075 36.5879 29.6041 36.234C32.9529 34.2591 35.7538 31.4936 37.7556 28.1854C37.7943 28.1214 37.8272 28.0529 37.8693 27.9911C38.1625 27.5709 38.6102 27.4428 39 27.6664C39.3898 27.8899 39.508 28.3405 39.2159 28.7899C38.6818 29.628 38.1386 30.465 37.5363 31.2559C35.2044 34.332 32.2497 36.6868 28.8007 38.4383C28.6007 38.5394 28.3859 38.6001 28.0336 38.7304Z" fill="url(#paint8_linear)"/>
<path d="M16.824 8.42345C16.6842 8.52007 16.4671 8.7605 16.2035 8.83127C15.1386 9.11327 14.1011 9.42784 13.1704 10.0458C11.4657 11.1692 10.3975 12.7151 9.88839 14.661C9.82702 14.8958 9.81224 15.1733 9.67133 15.3497C9.53041 15.5261 9.24404 15.7092 9.04403 15.6867C8.84402 15.6643 8.61673 15.4238 8.5065 15.2227C8.4224 15.0677 8.47127 14.8194 8.51332 14.6228C9.06675 11.9984 10.5293 9.99632 12.8681 8.68073C13.7772 8.17292 14.8182 7.8943 15.8228 7.57972C16.4103 7.39772 16.8444 7.73139 16.824 8.42345Z" fill="url(#paint9_linear)"/>
<path d="M31.9451 43.0816C32.1497 43.2861 32.5031 43.4805 32.5577 43.7366C32.6122 43.9928 32.444 44.4028 32.2372 44.5837C31.8503 44.915 31.4086 45.178 30.9314 45.3612C29.4723 45.9199 28.001 46.4442 26.5176 46.934C25.9233 47.1318 25.4437 46.8655 25.3346 46.3959C25.23 45.9465 25.5266 45.5668 26.1301 45.4398C27.9848 45.0507 29.7536 44.3349 31.3519 43.3265C31.5438 43.2316 31.742 43.1498 31.9451 43.0816Z" fill="url(#paint10_linear)"/>
<path d="M6.4189 27.3282C6.62559 27.4368 6.82387 27.5603 7.01211 27.6978C8.50953 29.0202 10.253 30.0417 12.1453 30.7054C12.9124 30.9728 13.1499 31.2941 12.9863 31.7446C12.8113 32.2288 12.4181 32.3232 11.6351 32.0322C9.59061 31.2902 7.71393 30.1575 6.11207 28.6988C5.90637 28.5101 5.79273 28.1101 5.82114 27.8248C5.83478 27.6473 6.19616 27.5012 6.4189 27.3282Z" fill="url(#paint11_linear)"/>
<defs>
<linearGradient id="paint0_linear" x1="5.65772" y1="-1.79904" x2="51.1966" y2="58.3831" gradientUnits="userSpaceOnUse">
<stop stop-color="#0056A5"/>
<stop offset="1" stop-color="white" stop-opacity="0.8"/>
</linearGradient>
<linearGradient id="paint1_linear" x1="5.65772" y1="-1.79904" x2="51.1966" y2="58.3831" gradientUnits="userSpaceOnUse">
<stop stop-color="#0056A5"/>
<stop offset="1" stop-color="white" stop-opacity="0.8"/>
</linearGradient>
<linearGradient id="paint2_linear" x1="5.65772" y1="-1.79904" x2="51.1966" y2="58.3831" gradientUnits="userSpaceOnUse">
<stop stop-color="#0056A5"/>
<stop offset="1" stop-color="white" stop-opacity="0.8"/>
</linearGradient>
<linearGradient id="paint3_linear" x1="5.65772" y1="-1.79904" x2="51.1966" y2="58.3831" gradientUnits="userSpaceOnUse">
<stop stop-color="#0056A5"/>
<stop offset="1" stop-color="white" stop-opacity="0.8"/>
</linearGradient>
<linearGradient id="paint4_linear" x1="5.65772" y1="-1.79904" x2="51.1966" y2="58.3831" gradientUnits="userSpaceOnUse">
<stop stop-color="#0056A5"/>
<stop offset="1" stop-color="white" stop-opacity="0.8"/>
</linearGradient>
<linearGradient id="paint5_linear" x1="5.65772" y1="-1.79904" x2="51.1966" y2="58.3831" gradientUnits="userSpaceOnUse">
<stop stop-color="#0056A5"/>
<stop offset="1" stop-color="white" stop-opacity="0.8"/>
</linearGradient>
<linearGradient id="paint6_linear" x1="5.65772" y1="-1.79904" x2="51.1966" y2="58.3831" gradientUnits="userSpaceOnUse">
<stop stop-color="#0056A5"/>
<stop offset="1" stop-color="white" stop-opacity="0.8"/>
</linearGradient>
<linearGradient id="paint7_linear" x1="5.65772" y1="-1.79904" x2="51.1966" y2="58.3831" gradientUnits="userSpaceOnUse">
<stop stop-color="#0056A5"/>
<stop offset="1" stop-color="white" stop-opacity="0.8"/>
</linearGradient>
<linearGradient id="paint8_linear" x1="5.65772" y1="-1.79904" x2="51.1966" y2="58.3831" gradientUnits="userSpaceOnUse">
<stop stop-color="#0056A5"/>
<stop offset="1" stop-color="white" stop-opacity="0.8"/>
</linearGradient>
<linearGradient id="paint9_linear" x1="5.65772" y1="-1.79904" x2="51.1966" y2="58.3831" gradientUnits="userSpaceOnUse">
<stop stop-color="#0056A5"/>
<stop offset="1" stop-color="white" stop-opacity="0.8"/>
</linearGradient>
<linearGradient id="paint10_linear" x1="5.65772" y1="-1.79904" x2="51.1966" y2="58.3831" gradientUnits="userSpaceOnUse">
<stop stop-color="#0056A5"/>
<stop offset="1" stop-color="white" stop-opacity="0.8"/>
</linearGradient>
<linearGradient id="paint11_linear" x1="5.65772" y1="-1.79904" x2="51.1966" y2="58.3831" gradientUnits="userSpaceOnUse">
<stop stop-color="#0056A5"/>
<stop offset="1" stop-color="white" stop-opacity="0.8"/>
</linearGradient>
</defs>
</svg>
